<svg width="15" height="14" viewBox="0 0 15 14" fill="none" xmlns="http://www.w3.org/2000/svg">
<path d="M10.3889 3.54731V2.99175C10.3889 2.21391 10.3889 1.82498 10.2314 1.52788C10.093 1.26654 9.87199 1.05407 9.60022 0.920913C9.29126 0.769531 8.88674 0.769531 8.07778 0.769531H6.92222C6.11326 0.769531 5.70877 0.769531 5.39979 0.920913C5.128 1.05407 4.90703 1.26654 4.76855 1.52788C4.61111 1.82498 4.61111 2.21391 4.61111 2.99175V3.54731M1.01965 5.64891C1.28005 5.88891 4.09524 8.40842 7.5 8.40842C10.9048 8.40842 13.7199 5.88891 13.9804 5.64891M1.01965 5.64891C1 5.973 1 6.37127 1 6.88064V9.9362C1 11.103 1 11.6863 1.23615 12.132C1.44388 12.524 1.77533 12.8427 2.18302 13.0424C2.64649 13.2695 3.25322 13.2695 4.46667 13.2695H10.5333C11.7468 13.2695 12.3535 13.2695 12.817 13.0424C13.2247 12.8427 13.5561 12.524 13.7638 12.132C14 11.6863 14 11.103 14 9.9362V6.88064C14 6.37127 14 5.973 13.9804 5.64891M1.01965 5.64891C1.04502 5.23071 1.1031 4.93591 1.23615 4.68483C1.44388 4.29282 1.77533 3.97411 2.18302 3.77438C2.64649 3.54731 3.25322 3.54731 4.46667 3.54731H10.5333C11.7468 3.54731 12.3535 3.54731 12.817 3.77438C13.2247 3.97411 13.5561 4.29282 13.7638 4.68483C13.8969 4.93591 13.955 5.23071 13.9804 5.64891" stroke="white" stroke-opacity="0.9" stroke-width="1.2" stroke-linecap="round" stroke-linejoin="round"/>
</svg>
